<svg width="24" height="24" viewBox="0 0 24 24" fill="none" xmlns="http://www.w3.org/2000/svg">
<rect width="24" height="24" rx="12" fill="#7844E7"/>
<path d="M18.8641 10.56C18.8641 7.58403 16.4401 5.16003 13.4641 5.16003C11.2081 5.16003 9.28808 6.52803 8.47208 8.49603C6.55208 9.31203 5.18408 11.232 5.18408 13.464C5.18408 16.44 7.60808 18.864 10.5841 18.864C12.8401 18.864 14.7601 17.496 15.5761 15.528C17.4721 14.712 18.8641 12.792 18.8641 10.56ZM10.5841 17.52C8.35208 17.52 6.52808 15.696 6.52808 13.464C6.52808 12.192 7.12808 11.04 8.06408 10.296C8.06408 10.392 8.06408 10.488 8.06408 10.56C8.06408 13.536 10.4881 15.96 13.4641 15.96C13.5841 15.96 13.6801 15.96 13.8001 15.96C13.0321 16.92 11.8801 17.52 10.5841 17.52ZM14.5201 14.472C14.1841 14.568 13.8241 14.616 13.4641 14.616C11.2321 14.616 9.40808 12.792 9.40808 10.56C9.40808 10.2 9.45608 9.86403 9.55208 9.55203C9.88808 9.45603 10.2481 9.40803 10.6081 9.40803C12.8401 9.40803 14.6641 11.232 14.6641 13.464C14.6401 13.824 14.5921 14.16 14.5201 14.472ZM15.9841 13.728C15.9841 13.632 15.9841 13.536 15.9841 13.464C15.9841 10.488 13.5601 8.06403 10.5841 8.06403C10.4641 8.06403 10.3681 8.06403 10.2481 8.06403C10.9921 7.10403 12.1441 6.50403 13.4401 6.50403C15.6721 6.50403 17.4961 8.32803 17.4961 10.56C17.4961 11.856 16.8961 12.984 15.9841 13.728Z" fill="white"/>
</svg>
