<svg width="40" height="40" viewBox="0 0 40 40" fill="none" xmlns="http://www.w3.org/2000/svg">
<path d="M31.4401 17.5996C31.4401 12.6396 27.4001 8.59961 22.4401 8.59961C18.6801 8.59961 15.4801 10.8796 14.1201 14.1596C10.9201 15.5196 8.64014 18.7196 8.64014 22.4396C8.64014 27.3996 12.6801 31.4396 17.6401 31.4396C21.4001 31.4396 24.6001 29.1596 25.9601 25.8796C29.1201 24.5196 31.4401 21.3196 31.4401 17.5996ZM17.6401 29.1996C13.9201 29.1996 10.8801 26.1596 10.8801 22.4396C10.8801 20.3196 11.8801 18.3996 13.4401 17.1596C13.4401 17.3196 13.4401 17.4796 13.4401 17.5996C13.4401 22.5596 17.4801 26.5996 22.4401 26.5996C22.6401 26.5996 22.8001 26.5996 23.0001 26.5996C21.7201 28.1996 19.8001 29.1996 17.6401 29.1996ZM24.2001 24.1196C23.6401 24.2796 23.0401 24.3596 22.4401 24.3596C18.7201 24.3596 15.6801 21.3196 15.6801 17.5996C15.6801 16.9996 15.7601 16.4396 15.9201 15.9196C16.4801 15.7596 17.0801 15.6796 17.6801 15.6796C21.4001 15.6796 24.4401 18.7196 24.4401 22.4396C24.4001 23.0396 24.3201 23.5996 24.2001 24.1196ZM26.6401 22.8796C26.6401 22.7196 26.6401 22.5596 26.6401 22.4396C26.6401 17.4796 22.6001 13.4396 17.6401 13.4396C17.4401 13.4396 17.2801 13.4396 17.0801 13.4396C18.3201 11.8396 20.2401 10.8396 22.4001 10.8396C26.1201 10.8396 29.1601 13.8796 29.1601 17.5996C29.1601 19.7596 28.1601 21.6396 26.6401 22.8796Z" fill="#E5EAEE"/>
</svg>
