<svg width="32" height="32" viewBox="0 0 32 32" fill="none" xmlns="http://www.w3.org/2000/svg">
<path d="M16 0C24.832 0 32 7.168 32 16C32 24.832 24.832 32 16 32C7.168 32 0 24.832 0 16C0 7.168 7.168 0 16 0Z" fill="#0A4FB7"/>
<path d="M25.1521 14.0799C25.1521 10.1119 21.9201 6.87988 17.9521 6.87988C14.9441 6.87988 12.3841 8.70388 11.2961 11.3279C8.73611 12.4159 6.91211 14.9759 6.91211 17.9519C6.91211 21.9199 10.1441 25.1519 14.1121 25.1519C17.1201 25.1519 19.6801 23.3279 20.7681 20.7039C23.2961 19.6159 25.1521 17.0559 25.1521 14.0799ZM14.1121 23.3599C11.1361 23.3599 8.70411 20.9279 8.70411 17.9519C8.70411 16.2559 9.50411 14.7199 10.7521 13.7279C10.7521 13.8559 10.7521 13.9839 10.7521 14.0799C10.7521 18.0479 13.9841 21.2799 17.9521 21.2799C18.1121 21.2799 18.2401 21.2799 18.4001 21.2799C17.3761 22.5599 15.8401 23.3599 14.1121 23.3599ZM19.3601 19.2959C18.9121 19.4239 18.4321 19.4879 17.9521 19.4879C14.9761 19.4879 12.5441 17.0559 12.5441 14.0799C12.5441 13.5999 12.6081 13.1519 12.7361 12.7359C13.1841 12.6079 13.6641 12.5439 14.1441 12.5439C17.1201 12.5439 19.5521 14.9759 19.5521 17.9519C19.5201 18.4319 19.4561 18.8799 19.3601 19.2959ZM21.3121 18.3039C21.3121 18.1759 21.3121 18.0479 21.3121 17.9519C21.3121 13.9839 18.0801 10.7519 14.1121 10.7519C13.9521 10.7519 13.8241 10.7519 13.6641 10.7519C14.6561 9.47188 16.1921 8.67188 17.9201 8.67188C20.8961 8.67188 23.3281 11.1039 23.3281 14.0799C23.3281 15.8079 22.5281 17.3119 21.3121 18.3039Z" fill="white"/>
</svg>
