<svg width="48" height="48" viewBox="0 0 48 48" fill="none" xmlns="http://www.w3.org/2000/svg">
<g filter="url(#filter0_d_1751_1649)">
<rect x="4" y="4" width="40" height="40" rx="20" fill="#324142"/>
<rect x="3" y="3" width="42" height="42" rx="21" stroke="#212B2E" stroke-width="2"/>
</g>
<path d="M23.4697 30.5303C23.7626 30.8232 24.2374 30.8232 24.5303 30.5303L29.3033 25.7574C29.5962 25.4645 29.5962 24.9896 29.3033 24.6967C29.0104 24.4038 28.5355 24.4038 28.2426 24.6967L24 28.9393L19.7574 24.6967C19.4645 24.4038 18.9896 24.4038 18.6967 24.6967C18.4038 24.9896 18.4038 25.4645 18.6967 25.7574L23.4697 30.5303ZM23.25 18L23.25 30L24.75 30L24.75 18L23.25 18Z" fill="#E5EAEE"/>
<defs>
<filter id="filter0_d_1751_1649" x="0" y="0" width="48" height="48" filterUnits="userSpaceOnUse" color-interpolation-filters="sRGB">
<feFlood flood-opacity="0" result="BackgroundImageFix"/>
<feColorMatrix in="SourceAlpha" type="matrix" values="0 0 0 0 0 0 0 0 0 0 0 0 0 0 0 0 0 0 127 0" result="hardAlpha"/>
<feOffset/>
<feComposite in2="hardAlpha" operator="out"/>
<feColorMatrix type="matrix" values="0 0 0 0 0.129412 0 0 0 0 0.168627 0 0 0 0 0.180392 0 0 0 1 0"/>
<feBlend mode="normal" in2="BackgroundImageFix" result="effect1_dropShadow_1751_1649"/>
<feBlend mode="normal" in="SourceGraphic" in2="effect1_dropShadow_1751_1649" result="shape"/>
</filter>
</defs>
</svg>
