<svg width="44" height="44" viewBox="0 0 44 44" fill="none" xmlns="http://www.w3.org/2000/svg">
<g filter="url(#filter0_d_1129_1489)">
<rect x="2" y="2" width="40" height="40" rx="20" fill="#324142"/>
</g>
<path d="M21.4697 28.5303C21.7626 28.8232 22.2374 28.8232 22.5303 28.5303L27.3033 23.7574C27.5962 23.4645 27.5962 22.9896 27.3033 22.6967C27.0104 22.4038 26.5355 22.4038 26.2426 22.6967L22 26.9393L17.7574 22.6967C17.4645 22.4038 16.9896 22.4038 16.6967 22.6967C16.4038 22.9896 16.4038 23.4645 16.6967 23.7574L21.4697 28.5303ZM21.25 16L21.25 28L22.75 28L22.75 16L21.25 16Z" fill="#E5EAEE"/>
<defs>
<filter id="filter0_d_1129_1489" x="0" y="0" width="44" height="44" filterUnits="userSpaceOnUse" color-interpolation-filters="sRGB">
<feFlood flood-opacity="0" result="BackgroundImageFix"/>
<feColorMatrix in="SourceAlpha" type="matrix" values="0 0 0 0 0 0 0 0 0 0 0 0 0 0 0 0 0 0 127 0" result="hardAlpha"/>
<feMorphology radius="2" operator="dilate" in="SourceAlpha" result="effect1_dropShadow_1129_1489"/>
<feOffset/>
<feComposite in2="hardAlpha" operator="out"/>
<feColorMatrix type="matrix" values="0 0 0 0 0.129412 0 0 0 0 0.168627 0 0 0 0 0.180392 0 0 0 0.75 0"/>
<feBlend mode="normal" in2="BackgroundImageFix" result="effect1_dropShadow_1129_1489"/>
<feBlend mode="normal" in="SourceGraphic" in2="effect1_dropShadow_1129_1489" result="shape"/>
</filter>
</defs>
</svg>
