<svg width="28" height="28" viewBox="0 0 28 28" fill="none" xmlns="http://www.w3.org/2000/svg">
<path d="M19.25 14C19.25 16.8995 16.8995 19.25 14 19.25V20.75C17.7279 20.75 20.75 17.7279 20.75 14H19.25ZM14 8.75C16.8995 8.75 19.25 11.1005 19.25 14H20.75C20.75 10.2721 17.7279 7.25 14 7.25V8.75ZM8.75 14C8.75 11.1005 11.1005 8.75 14 8.75V7.25C10.2721 7.25 7.25 10.2721 7.25 14H8.75ZM14 19.25C11.1005 19.25 8.75 16.8995 8.75 14H7.25C7.25 17.7279 10.2721 20.75 14 20.75V19.25Z" fill="#E5EAEE"/>
<path fill-rule="evenodd" clip-rule="evenodd" d="M14 0.5C13.5858 0.5 13.25 0.835786 13.25 1.25V3.75C13.25 4.16421 13.5858 4.5 14 4.5C14.4142 4.5 14.75 4.16421 14.75 3.75V1.25C14.75 0.835786 14.4142 0.5 14 0.5ZM14 23.5C13.5858 23.5 13.25 23.8358 13.25 24.25V26.75C13.25 27.1642 13.5858 27.5 14 27.5C14.4142 27.5 14.75 27.1642 14.75 26.75V24.25C14.75 23.8358 14.4142 23.5 14 23.5ZM1.25 14.75C0.835786 14.75 0.5 14.4142 0.5 14C0.5 13.5858 0.835786 13.25 1.25 13.25H3.75C4.16421 13.25 4.5 13.5858 4.5 14C4.5 14.4142 4.16421 14.75 3.75 14.75H1.25ZM23.5 14C23.5 14.4142 23.8358 14.75 24.25 14.75H26.75C27.1642 14.75 27.5 14.4142 27.5 14C27.5 13.5858 27.1642 13.25 26.75 13.25H24.25C23.8358 13.25 23.5 13.5858 23.5 14ZM22.4853 4.45416C22.7782 4.16126 23.2531 4.16126 23.546 4.45416C23.8388 4.74705 23.8388 5.22193 23.546 5.51482L21.7782 7.28259C21.4853 7.57548 21.0104 7.57548 20.7175 7.28259C20.4246 6.98969 20.4246 6.51482 20.7175 6.22193L22.4853 4.45416ZM7.28228 20.7173C6.98939 20.4244 6.51452 20.4244 6.22162 20.7173L4.45386 22.4851C4.16096 22.778 4.16096 23.2529 4.45386 23.5458C4.74675 23.8387 5.22162 23.8387 5.51452 23.5458L7.28228 21.778C7.57518 21.4851 7.57518 21.0102 7.28228 20.7173ZM4.45416 5.51471C4.16126 5.22181 4.16126 4.74694 4.45416 4.45404C4.74705 4.16115 5.22193 4.16115 5.51482 4.45404L7.28259 6.22181C7.57548 6.51471 7.57548 6.98958 7.28259 7.28247C6.98969 7.57537 6.51482 7.57537 6.22193 7.28247L4.45416 5.51471ZM20.7173 20.7177C20.4244 21.0106 20.4244 21.4855 20.7173 21.7784L22.4851 23.5461C22.778 23.839 23.2529 23.839 23.5458 23.5461C23.8387 23.2533 23.8387 22.7784 23.5458 22.4855L21.778 20.7177C21.4851 20.4248 21.0102 20.4248 20.7173 20.7177Z" fill="#E5EAEE"/>
</svg>
