<svg width="40" height="40" viewBox="0 0 40 40" fill="none" xmlns="http://www.w3.org/2000/svg">
<path d="M32.4755 9.27462C30.181 8.2218 27.7205 7.44612 25.1478 7.00186C25.101 6.99329 25.0542 7.01472 25.0301 7.05757C24.7136 7.62039 24.3631 8.35464 24.1176 8.93176C21.3506 8.5175 18.5978 8.5175 15.8875 8.93176C15.642 8.34181 15.2787 7.62039 14.9609 7.05757C14.9367 7.01615 14.8899 6.99472 14.8431 7.00186C12.2719 7.4447 9.81134 8.22038 7.5154 9.27462C7.49553 9.28319 7.47849 9.29749 7.46718 9.31604C2.80009 16.2886 1.52157 23.0897 2.14877 29.8066C2.15161 29.8394 2.17005 29.8709 2.1956 29.8909C5.27481 32.1522 8.25756 33.525 11.1849 34.4349C11.2318 34.4492 11.2814 34.4321 11.3112 34.3935C12.0037 33.4479 12.621 32.4508 13.1502 31.4022C13.1814 31.3408 13.1516 31.2679 13.0878 31.2436C12.1087 30.8722 11.1764 30.4194 10.2796 29.9052C10.2087 29.8637 10.203 29.7623 10.2682 29.7137C10.457 29.5723 10.6457 29.4251 10.8259 29.2766C10.8585 29.2494 10.904 29.2437 10.9423 29.2609C16.8339 31.9508 23.2123 31.9508 29.0344 29.2609C29.0728 29.2423 29.1182 29.248 29.1522 29.2752C29.3325 29.4237 29.5212 29.5723 29.7113 29.7137C29.7766 29.7623 29.7723 29.8637 29.7014 29.9052C28.8046 30.4294 27.8723 30.8722 26.8918 31.2422C26.8279 31.2665 26.7995 31.3408 26.8308 31.4022C27.3714 32.4493 27.9887 33.4464 28.6683 34.3921C28.6967 34.4321 28.7478 34.4492 28.7946 34.4349C31.7362 33.525 34.7189 32.1522 37.7981 29.8909C37.8251 29.8709 37.8422 29.8409 37.845 29.808C38.5956 22.0426 36.5877 15.2972 32.5223 9.31746C32.5124 9.29749 32.4954 9.28319 32.4755 9.27462ZM14.03 25.7167C12.2562 25.7167 10.7947 24.0883 10.7947 22.0883C10.7947 20.0884 12.2279 18.4599 14.03 18.4599C15.8463 18.4599 17.2937 20.1027 17.2653 22.0883C17.2653 24.0883 15.8321 25.7167 14.03 25.7167ZM25.9921 25.7167C24.2184 25.7167 22.7568 24.0883 22.7568 22.0883C22.7568 20.0884 24.19 18.4599 25.9921 18.4599C27.8084 18.4599 29.2558 20.1027 29.2275 22.0883C29.2275 24.0883 27.8084 25.7167 25.9921 25.7167Z" fill="#1C3D42"/>
</svg>
