<svg width="36" height="28" viewBox="0 0 36 28" fill="none" xmlns="http://www.w3.org/2000/svg">
<path d="M30.4755 2.27462C28.181 1.2218 25.7205 0.446124 23.1478 0.00186361C23.101 -0.00671047 23.0542 0.0147166 23.0301 0.0575718C22.7136 0.620394 22.3631 1.35464 22.1176 1.93176C19.3506 1.5175 16.5978 1.5175 13.8875 1.93176C13.642 1.34181 13.2787 0.620394 12.9609 0.0575718C12.9367 0.0161465 12.8899 -0.00528061 12.8431 0.00186361C10.2719 0.444704 7.81134 1.22038 5.5154 2.27462C5.49553 2.28319 5.47849 2.29749 5.46718 2.31604C0.800088 9.28859 -0.478425 16.0897 0.14877 22.8066C0.151608 22.8394 0.170055 22.8709 0.195597 22.8909C3.27481 25.1522 6.25756 26.525 9.18492 27.4349C9.23177 27.4492 9.28141 27.4321 9.31122 27.3935C10.0037 26.4479 10.621 25.4508 11.1502 24.4022C11.1814 24.3408 11.1516 24.2679 11.0878 24.2436C10.1087 23.8722 9.1764 23.4194 8.27959 22.9052C8.20866 22.8637 8.20298 22.7623 8.26824 22.7137C8.45696 22.5723 8.64573 22.4251 8.82593 22.2766C8.85853 22.2494 8.90397 22.2437 8.9423 22.2609C14.8339 24.9508 21.2123 24.9508 27.0344 22.2609C27.0728 22.2423 27.1182 22.248 27.1522 22.2752C27.3325 22.4237 27.5212 22.5723 27.7113 22.7137C27.7766 22.7623 27.7723 22.8637 27.7014 22.9052C26.8046 23.4294 25.8723 23.8722 24.8918 24.2422C24.8279 24.2665 24.7995 24.3408 24.8308 24.4022C25.3714 25.4493 25.9887 26.4464 26.6683 27.3921C26.6967 27.4321 26.7478 27.4492 26.7946 27.4349C29.7362 26.525 32.7189 25.1522 35.7981 22.8909C35.8251 22.8709 35.8422 22.8409 35.845 22.808C36.5956 15.0426 34.5877 8.29722 30.5223 2.31746C30.5124 2.29749 30.4954 2.28319 30.4755 2.27462ZM12.03 18.7167C10.2562 18.7167 8.7947 17.0883 8.7947 15.0883C8.7947 13.0884 10.2279 11.4599 12.03 11.4599C13.8463 11.4599 15.2937 13.1027 15.2653 15.0883C15.2653 17.0883 13.8321 18.7167 12.03 18.7167ZM23.9921 18.7167C22.2184 18.7167 20.7568 17.0883 20.7568 15.0883C20.7568 13.0884 22.19 11.4599 23.9921 11.4599C25.8084 11.4599 27.2558 13.1027 27.2275 15.0883C27.2275 17.0883 25.8084 18.7167 23.9921 18.7167Z" fill="#E5EAEE"/>
</svg>
