<svg width="40" height="40" viewBox="0 0 40 40" fill="none" xmlns="http://www.w3.org/2000/svg">
<path d="M20 4C10.6075 4 3 11.6075 3 21C3 28.5225 7.86625 34.8762 14.6237 37.1287C15.4738 37.2775 15.7925 36.7675 15.7925 36.3213C15.7925 35.9175 15.7713 34.5787 15.7713 33.155C11.5 33.9412 10.395 32.1137 10.055 31.1575C9.86375 30.6687 9.035 29.16 8.3125 28.7562C7.7175 28.4375 6.8675 27.6512 8.29125 27.63C9.63 27.6087 10.5863 28.8625 10.905 29.3725C12.435 31.9437 14.8788 31.2212 15.8563 30.775C16.005 29.67 16.4513 28.9262 16.94 28.5012C13.1575 28.0762 9.205 26.61 9.205 20.1075C9.205 18.2587 9.86375 16.7287 10.9475 15.5387C10.7775 15.1137 10.1825 13.3712 11.1175 11.0337C11.1175 11.0337 12.5413 10.5875 15.7925 12.7762C17.1525 12.3938 18.5975 12.2025 20.0425 12.2025C21.4875 12.2025 22.9325 12.3938 24.2925 12.7762C27.5438 10.5663 28.9675 11.0337 28.9675 11.0337C29.9025 13.3712 29.3075 15.1137 29.1375 15.5387C30.2213 16.7287 30.88 18.2375 30.88 20.1075C30.88 26.6313 26.9063 28.0762 23.1238 28.5012C23.74 29.0325 24.2713 30.0525 24.2713 31.6462C24.2713 33.92 24.25 35.7475 24.25 36.3213C24.25 36.7675 24.5688 37.2987 25.4188 37.1287C28.7937 35.9897 31.7265 33.8208 33.8041 30.9275C35.8816 28.0341 36.9994 24.562 37 21C37 11.6075 29.3925 4 20 4Z" fill="#E5EAEE"/>
</svg>
