<svg width="18" height="18" viewBox="0 0 18 18" fill="none" xmlns="http://www.w3.org/2000/svg">
<path d="M8.25613 14V6.36364H9.74263V14H8.25613ZM9.00684 5.18537C8.74831 5.18537 8.52625 5.09919 8.34064 4.92685C8.15835 4.75118 8.06721 4.54238 8.06721 4.30043C8.06721 4.05516 8.15835 3.84635 8.34064 3.67401C8.52625 3.49834 8.74831 3.41051 9.00684 3.41051C9.26536 3.41051 9.48577 3.49834 9.66806 3.67401C9.85366 3.84635 9.94647 4.05516 9.94647 4.30043C9.94647 4.54238 9.85366 4.75118 9.66806 4.92685C9.48577 5.09919 9.26536 5.18537 9.00684 5.18537Z" fill="#7ED8C2"/>
<path d="M9 16.5C4.85786 16.5 1.5 13.1421 1.5 9H0.5C0.5 13.6944 4.30558 17.5 9 17.5V16.5ZM16.5 9C16.5 13.1421 13.1421 16.5 9 16.5V17.5C13.6944 17.5 17.5 13.6944 17.5 9H16.5ZM9 1.5C13.1421 1.5 16.5 4.85786 16.5 9H17.5C17.5 4.30558 13.6944 0.5 9 0.5V1.5ZM9 0.5C4.30558 0.5 0.5 4.30558 0.5 9H1.5C1.5 4.85786 4.85786 1.5 9 1.5V0.5Z" fill="#7ED8C2"/>
</svg>
