<svg width="16" height="16" viewBox="0 0 16 16" fill="none" xmlns="http://www.w3.org/2000/svg">
<path d="M7.36239 12.5V5.95455H8.63654V12.5H7.36239ZM8.00586 4.9446C7.78427 4.9446 7.59393 4.87074 7.43484 4.72301C7.27859 4.57244 7.20046 4.39347 7.20046 4.18608C7.20046 3.97585 7.27859 3.79687 7.43484 3.64915C7.59393 3.49858 7.78427 3.4233 8.00586 3.4233C8.22745 3.4233 8.41637 3.49858 8.57262 3.64915C8.73171 3.79687 8.81126 3.97585 8.81126 4.18608C8.81126 4.39347 8.73171 4.57244 8.57262 4.72301C8.41637 4.87074 8.22745 4.9446 8.00586 4.9446Z" fill="#7ED8C2"/>
<rect x="1" y="1" width="14" height="14" rx="7" stroke="#7ED8C2"/>
</svg>
