<svg width="20" height="20" viewBox="0 0 20 20" fill="none" xmlns="http://www.w3.org/2000/svg">
<path d="M18.9838 10.5461L19.7324 10.5909C19.7505 10.2879 19.5843 10.0039 19.3112 9.87137C19.0382 9.73885 18.7122 9.78396 18.4854 9.98565L18.9838 10.5461ZM9.45426 1.0166L10.0147 1.51498C10.2164 1.28818 10.2615 0.962176 10.129 0.689127C9.99647 0.416077 9.71244 0.249813 9.40947 0.267935L9.45426 1.0166ZM18.4854 9.98565C17.4251 10.9285 16.0303 11.5003 14.5 11.5003V13.0003C16.4117 13.0003 18.1579 12.2841 19.4821 11.1066L18.4854 9.98565ZM14.5 11.5003C11.1863 11.5003 8.50001 8.81404 8.50001 5.50033H7.00001C7.00001 9.64247 10.3579 13.0003 14.5 13.0003V11.5003ZM8.50001 5.50033C8.50001 3.97009 9.07188 2.57523 10.0147 1.51498L8.8938 0.51821C7.71622 1.84244 7.00001 3.58865 7.00001 5.50033H8.50001ZM1.75 10.0003C1.75 5.61223 5.17631 2.02382 9.49904 1.76526L9.40947 0.267935C4.29931 0.573597 0.25 4.8138 0.25 10.0003H1.75ZM10 18.2504C5.44366 18.2504 1.75 14.5567 1.75 10.0003H0.25C0.25 15.3851 4.61523 19.7504 10 19.7504V18.2504ZM18.2351 10.5013C17.9765 14.824 14.3881 18.2504 10 18.2504V19.7504C15.1866 19.7504 19.4268 15.701 19.7324 10.5909L18.2351 10.5013Z" fill="#212B2E"/>
</svg>
