<svg width="40" height="40" viewBox="0 0 40 40" fill="none" xmlns="http://www.w3.org/2000/svg">
<path d="M31.4401 17.6001C31.4401 12.6401 27.4001 8.6001 22.4401 8.6001C18.6801 8.6001 15.4801 10.8801 14.1201 14.1601C10.9201 15.5201 8.64014 18.7201 8.64014 22.4401C8.64014 27.4001 12.6801 31.4401 17.6401 31.4401C21.4001 31.4401 24.6001 29.1601 25.9601 25.8801C29.1201 24.5201 31.4401 21.3201 31.4401 17.6001ZM17.6401 29.2001C13.9201 29.2001 10.8801 26.1601 10.8801 22.4401C10.8801 20.3201 11.8801 18.4001 13.4401 17.1601C13.4401 17.3201 13.4401 17.4801 13.4401 17.6001C13.4401 22.5601 17.4801 26.6001 22.4401 26.6001C22.6401 26.6001 22.8001 26.6001 23.0001 26.6001C21.7201 28.2001 19.8001 29.2001 17.6401 29.2001ZM24.2001 24.1201C23.6401 24.2801 23.0401 24.3601 22.4401 24.3601C18.7201 24.3601 15.6801 21.3201 15.6801 17.6001C15.6801 17.0001 15.7601 16.4401 15.9201 15.9201C16.4801 15.7601 17.0801 15.6801 17.6801 15.6801C21.4001 15.6801 24.4401 18.7201 24.4401 22.4401C24.4001 23.0401 24.3201 23.6001 24.2001 24.1201ZM26.6401 22.8801C26.6401 22.7201 26.6401 22.5601 26.6401 22.4401C26.6401 17.4801 22.6001 13.4401 17.6401 13.4401C17.4401 13.4401 17.2801 13.4401 17.0801 13.4401C18.3201 11.8401 20.2401 10.8401 22.4001 10.8401C26.1201 10.8401 29.1601 13.8801 29.1601 17.6001C29.1601 19.7601 28.1601 21.6401 26.6401 22.8801Z" fill="#1C3D42"/>
</svg>
