<svg width="41" height="40" viewBox="0 0 41 40" fill="none" xmlns="http://www.w3.org/2000/svg">
<path d="M36.1668 19.9999C36.1668 19.4476 35.7191 18.9999 35.1668 18.9999C34.6145 18.9999 34.1668 19.4476 34.1668 19.9999H36.1668ZM20.5002 6.33325C21.0524 6.33325 21.5002 5.88554 21.5002 5.33325C21.5002 4.78097 21.0524 4.33325 20.5002 4.33325V6.33325ZM34.1668 19.9999C34.1668 27.5478 28.0481 33.6666 20.5002 33.6666V35.6666C29.1526 35.6666 36.1668 28.6524 36.1668 19.9999H34.1668ZM20.5002 33.6666C12.9523 33.6666 6.8335 27.5478 6.8335 19.9999H4.8335C4.8335 28.6524 11.8477 35.6666 20.5002 35.6666V33.6666ZM6.8335 19.9999C6.8335 12.452 12.9523 6.33325 20.5002 6.33325V4.33325C11.8477 4.33325 4.8335 11.3475 4.8335 19.9999H6.8335Z" fill="url(#paint0_angular_1086_24618)"/>
<defs>
<radialGradient id="paint0_angular_1086_24618" cx="0" cy="0" r="1" gradientUnits="userSpaceOnUse" gradientTransform="translate(20.5002 19.9999) rotate(-7.275) scale(15.7938)">
<stop offset="0.804018" stop-color="#212B2E"/>
<stop offset="1" stop-color="#212B2E" stop-opacity="0"/>
</radialGradient>
</defs>
</svg>
