<svg width="41" height="40" viewBox="0 0 41 40" fill="none" xmlns="http://www.w3.org/2000/svg">
<path d="M36.1666 20.0002C36.1666 19.4479 35.7189 19.0002 35.1666 19.0002C34.6143 19.0002 34.1666 19.4479 34.1666 20.0002H36.1666ZM20.4999 6.3335C21.0522 6.3335 21.4999 5.88578 21.4999 5.3335C21.4999 4.78121 21.0522 4.3335 20.4999 4.3335V6.3335ZM34.1666 20.0002C34.1666 27.5481 28.0478 33.6668 20.4999 33.6668V35.6668C29.1524 35.6668 36.1666 28.6526 36.1666 20.0002H34.1666ZM20.4999 33.6668C12.952 33.6668 6.83325 27.5481 6.83325 20.0002H4.83325C4.83325 28.6526 11.8475 35.6668 20.4999 35.6668V33.6668ZM6.83325 20.0002C6.83325 12.4523 12.952 6.3335 20.4999 6.3335V4.3335C11.8475 4.3335 4.83325 11.3477 4.83325 20.0002H6.83325Z" fill="url(#paint0_angular_2087_1339)"/>
<defs>
<radialGradient id="paint0_angular_2087_1339" cx="0" cy="0" r="1" gradientUnits="userSpaceOnUse" gradientTransform="translate(20.4999 20.0002) rotate(-7.275) scale(15.7938)">
<stop offset="0.804018" stop-color="#E5EAEE"/>
<stop offset="1" stop-color="#E5EAEE"/>
</radialGradient>
</defs>
</svg>
