<svg width="41" height="40" viewBox="0 0 41 40" fill="none" xmlns="http://www.w3.org/2000/svg">
<path d="M36.1667 19.9997C36.1667 19.4474 35.719 18.9997 35.1667 18.9997C34.6144 18.9997 34.1667 19.4474 34.1667 19.9997H36.1667ZM20.5 6.33301C21.0523 6.33301 21.5 5.88529 21.5 5.33301C21.5 4.78072 21.0523 4.33301 20.5 4.33301V6.33301ZM34.1667 19.9997C34.1667 27.5476 28.0479 33.6663 20.5 33.6663V35.6663C29.1525 35.6663 36.1667 28.6521 36.1667 19.9997H34.1667ZM20.5 33.6663C12.9521 33.6663 6.83334 27.5476 6.83334 19.9997H4.83334C4.83334 28.6521 11.8475 35.6663 20.5 35.6663V33.6663ZM6.83334 19.9997C6.83334 12.4518 12.9521 6.33301 20.5 6.33301V4.33301C11.8475 4.33301 4.83334 11.3472 4.83334 19.9997H6.83334Z" fill="url(#paint0_angular_2087_10364)"/>
<defs>
<radialGradient id="paint0_angular_2087_10364" cx="0" cy="0" r="1" gradientUnits="userSpaceOnUse" gradientTransform="translate(20.5 19.9997) rotate(-7.275) scale(15.7938)">
<stop offset="0.804018" stop-color="#212B2E"/>
<stop offset="1" stop-color="#212B2E"/>
</radialGradient>
</defs>
</svg>
