<svg width="40" height="40" viewBox="0 0 40 40" fill="none" xmlns="http://www.w3.org/2000/svg">
<path d="M28.9837 20.5461L29.7324 20.5909C29.7505 20.2879 29.5842 20.0039 29.3112 19.8714C29.0381 19.7389 28.7121 19.784 28.4853 19.9857L28.9837 20.5461ZM19.4542 11.0166L20.0147 11.515C20.2164 11.2882 20.2615 10.9622 20.129 10.6891C19.9964 10.4161 19.7124 10.2498 19.4094 10.2679L19.4542 11.0166ZM28.4853 19.9857C27.4251 20.9285 26.0302 21.5003 24.5 21.5003V23.0003C26.4117 23.0003 28.1579 22.2841 29.4821 21.1066L28.4853 19.9857ZM24.5 21.5003C21.1863 21.5003 18.5 18.8141 18.5 15.5003H17C17 19.6425 20.3578 23.0003 24.5 23.0003V21.5003ZM18.5 15.5003C18.5 13.9701 19.0718 12.5752 20.0147 11.515L18.8938 10.5182C17.7162 11.8424 17 13.5887 17 15.5003H18.5ZM11.75 20.0003C11.75 15.6122 15.1763 12.0238 19.499 11.7653L19.4094 10.2679C14.2993 10.5736 10.25 14.8138 10.25 20.0003H11.75ZM20 28.2504C15.4436 28.2504 11.75 24.5567 11.75 20.0003H10.25C10.25 25.3851 14.6152 29.7504 20 29.7504V28.2504ZM28.2351 20.5013C27.9765 24.824 24.3881 28.2504 20 28.2504V29.7504C25.1865 29.7504 29.4267 25.7011 29.7324 20.5909L28.2351 20.5013Z" fill="#1C3D42"/>
</svg>
