<svg width="40" height="40" viewBox="0 0 40 40" fill="none" xmlns="http://www.w3.org/2000/svg">
<rect width="40" height="40" rx="20" fill="#EBE7DD"/>
<path d="M25.25 20C25.25 22.8995 22.8995 25.25 20 25.25V26.75C23.7279 26.75 26.75 23.7279 26.75 20H25.25ZM20 14.75C22.8995 14.75 25.25 17.1005 25.25 20H26.75C26.75 16.2721 23.7279 13.25 20 13.25V14.75ZM14.75 20C14.75 17.1005 17.1005 14.75 20 14.75V13.25C16.2721 13.25 13.25 16.2721 13.25 20H14.75ZM20 25.25C17.1005 25.25 14.75 22.8995 14.75 20H13.25C13.25 23.7279 16.2721 26.75 20 26.75V25.25Z" fill="#1C3D42"/>
<path fill-rule="evenodd" clip-rule="evenodd" d="M20 6.5C19.5858 6.5 19.25 6.83579 19.25 7.25V9.75C19.25 10.1642 19.5858 10.5 20 10.5C20.4142 10.5 20.75 10.1642 20.75 9.75V7.25C20.75 6.83579 20.4142 6.5 20 6.5ZM20 29.5C19.5858 29.5 19.25 29.8358 19.25 30.25V32.75C19.25 33.1642 19.5858 33.5 20 33.5C20.4142 33.5 20.75 33.1642 20.75 32.75V30.25C20.75 29.8358 20.4142 29.5 20 29.5ZM7.25 20.75C6.83579 20.75 6.5 20.4142 6.5 20C6.5 19.5858 6.83579 19.25 7.25 19.25H9.75C10.1642 19.25 10.5 19.5858 10.5 20C10.5 20.4142 10.1642 20.75 9.75 20.75H7.25ZM29.5 20C29.5 20.4142 29.8358 20.75 30.25 20.75H32.75C33.1642 20.75 33.5 20.4142 33.5 20C33.5 19.5858 33.1642 19.25 32.75 19.25H30.25C29.8358 19.25 29.5 19.5858 29.5 20ZM28.4853 10.4542C28.7782 10.1613 29.2531 10.1613 29.546 10.4542C29.8388 10.7471 29.8388 11.2219 29.546 11.5148L27.7782 13.2826C27.4853 13.5755 27.0104 13.5755 26.7175 13.2826C26.4246 12.9897 26.4246 12.5148 26.7175 12.2219L28.4853 10.4542ZM13.2823 26.7173C12.9894 26.4244 12.5145 26.4244 12.2216 26.7173L10.4539 28.4851C10.161 28.778 10.161 29.2529 10.4539 29.5458C10.7467 29.8387 11.2216 29.8387 11.5145 29.5458L13.2823 27.778C13.5752 27.4851 13.5752 27.0102 13.2823 26.7173ZM10.4542 11.5147C10.1613 11.2218 10.1613 10.7469 10.4542 10.454C10.7471 10.1612 11.2219 10.1612 11.5148 10.454L13.2826 12.2218C13.5755 12.5147 13.5755 12.9896 13.2826 13.2825C12.9897 13.5754 12.5148 13.5754 12.2219 13.2825L10.4542 11.5147ZM26.7173 26.7177C26.4244 27.0106 26.4244 27.4855 26.7173 27.7784L28.4851 29.5461C28.778 29.839 29.2529 29.839 29.5458 29.5461C29.8387 29.2533 29.8387 28.7784 29.5458 28.4855L27.778 26.7177C27.4851 26.4248 27.0102 26.4248 26.7173 26.7177Z" fill="#1C3D42"/>
</svg>
