<svg width="40" height="40" viewBox="0 0 40 40" fill="none" xmlns="http://www.w3.org/2000/svg">
<path d="M14.1675 34.6458C27.0062 34.6458 34.0262 24.0072 34.0262 14.7871C34.0262 14.4832 34.0262 14.1792 34.0117 13.8897C35.3723 12.9055 36.5592 11.6752 37.5 10.2712C36.2552 10.8212 34.9091 11.1975 33.4906 11.3712C34.9381 10.5028 36.0381 9.14219 36.5592 7.5066C35.2131 8.30268 33.7222 8.88165 32.1301 9.20009C30.8563 7.83951 29.047 7 27.0351 7C23.185 7 20.0585 10.1264 20.0585 13.9766C20.0585 14.5266 20.1164 15.0622 20.2467 15.5688C14.4425 15.2793 9.30417 12.5002 5.8593 8.27374C5.26586 9.30141 4.91848 10.5028 4.91848 11.7765C4.91848 14.1937 6.14879 16.3359 8.03044 17.5807C6.88697 17.5517 5.81588 17.2333 4.87505 16.7122C4.87505 16.7412 4.87505 16.7701 4.87505 16.7991C4.87505 20.186 7.27778 22.994 10.4766 23.6454C9.89761 23.8046 9.27522 23.8914 8.63836 23.8914C8.18965 23.8914 7.75543 23.848 7.3212 23.7612C8.20413 26.5402 10.7805 28.5521 13.8346 28.61C11.4464 30.4772 8.43572 31.5917 5.16454 31.5917C4.60004 31.5917 4.05002 31.5628 3.5 31.4904C6.55407 33.4879 10.2305 34.6458 14.1675 34.6458Z" fill="#E5EAEE"/>
</svg>
