<svg width="35" height="28" viewBox="0 0 35 28" fill="none" xmlns="http://www.w3.org/2000/svg">
<path d="M11.1675 27.6458C24.0062 27.6458 31.0262 17.0072 31.0262 7.78714C31.0262 7.48318 31.0262 7.17923 31.0117 6.88974C32.3723 5.90549 33.5592 4.67518 34.5 3.27118C33.2552 3.8212 31.9091 4.19753 30.4906 4.37122C31.9381 3.50277 33.0381 2.14219 33.5592 0.506599C32.2131 1.30268 30.7222 1.88165 29.1301 2.20009C27.8563 0.839507 26.047 0 24.0351 0C20.185 0 17.0585 3.12644 17.0585 6.97659C17.0585 7.52661 17.1164 8.06216 17.2467 8.56875C11.4425 8.27927 6.30417 5.50021 2.8593 1.27374C2.26586 2.30141 1.91848 3.50277 1.91848 4.7765C1.91848 7.1937 3.14879 9.33589 5.03044 10.5807C3.88697 10.5517 2.81588 10.2333 1.87505 9.71222C1.87505 9.74117 1.87505 9.77011 1.87505 9.79906C1.87505 13.186 4.27778 15.994 7.47658 16.6454C6.89761 16.8046 6.27522 16.8914 5.63836 16.8914C5.18965 16.8914 4.75543 16.848 4.3212 16.7612C5.20413 19.5402 7.78054 21.5521 10.8346 21.61C8.44636 23.4772 5.43572 24.5917 2.16454 24.5917C1.60004 24.5917 1.05002 24.5628 0.5 24.4904C3.55407 26.4879 7.23052 27.6458 11.1675 27.6458Z" fill="#E5EAEE"/>
</svg>
